<svg id="euTXjr0iDfB1" xmlns="http://www.w3.org/2000/svg" xmlns:xlink="http://www.w3.org/1999/xlink" viewBox="0 0 48 48" shape-rendering="geometricPrecision" text-rendering="geometricPrecision"><path d="M5,38q-1.25,0-2.125-.875t-.875-2.125v-22q0-1.25.875-2.125t2.125-.875h22q1.25,0,2.125.875t.875,2.125v22q0,1.25-.875,2.125t-2.125.875ZM36,22q-.85,0-1.425-.575t-.575-1.425v-8q0-.85.575-1.425t1.425-.575h8q.85,0,1.425.575t.575,1.425v8q0,.85-.575,1.425t-1.425.575Zm1-3h6v-6h-6ZM5,35h22v-22h-22v22Zm3-5h16l-5.25-7L15,28l-2.75-3.65Zm28,8q-.85,0-1.425-.575t-.575-1.425v-8q0-.85.575-1.425t1.425-.575h8q.85,0,1.425.575t.575,1.425v8q0,.85-.575,1.425t-1.425.575Zm1-3h6v-6h-6ZM5,35v-22v22ZM37,19v-6v6Zm0,16v-6v6Z" fill="#fff"/></svg>
