<svg id="eWSBcCmbTj91" xmlns="http://www.w3.org/2000/svg" xmlns:xlink="http://www.w3.org/1999/xlink" viewBox="0 0 48 48" shape-rendering="geometricPrecision" text-rendering="geometricPrecision"><path d="M24.2,35.65q.8,0,1.35-.55t.55-1.35-.55-1.35-1.35-.55-1.35.55-.55,1.35.55,1.35t1.35.55Zm-1.75-7.3h2.95q0-1.3.325-2.375t2.025-2.475q1.55-1.3,2.2-2.55t.65-2.75q0-2.65-1.725-4.25t-4.575-1.6q-2.45,0-4.325,1.225t-2.725,3.375l2.65,1q.55-1.4,1.65-2.175t2.6-.775q1.7,0,2.75.925t1.05,2.375q0,1.1-.65,2.075t-1.9,2.025q-1.5,1.3-2.225,2.575t-.725,3.375ZM24,44q-4.1,0-7.75-1.575t-6.375-4.3-4.3-6.375-1.575-7.75q0-4.15,1.575-7.8t4.3-6.35t6.375-4.275t7.75-1.575q4.15,0,7.8,1.575t6.35,4.275t4.275,6.35t1.575,7.8q0,4.1-1.575,7.75t-4.275,6.375-6.35,4.3-7.8,1.575Zm0-3q7.1,0,12.05-4.975t4.95-12.025q0-7.1-4.95-12.05Q31.1,7,24,7q-7.05,0-12.025,4.95Q7,16.9,7,24q0,7.05,4.975,12.025t12.025,4.975Zm0-17" fill="#fff"/></svg>
